<svg xmlns="http://www.w3.org/2000/svg" viewBox="0 0 500 500">
  <title>acquiring</title>
  <g>
    <path d="M219.29,13.1,191.88,26.8l13.4,26.8,14-7L384.1,129v110.6a165.61,165.61,0,0,1-65.93,131.85l-98.88,74.16L120.4,371.46A165.61,165.61,0,0,1,54.47,239.61V129l16.8-8.4-13.4-26.8L24.51,110.49V239.61a195.7,195.7,0,0,0,77.9,155.82l116.88,87.65,116.87-87.65a195.7,195.7,0,0,0,77.9-155.82V110.49Z" style="fill: #009ade"/>
    <rect x="143.4" y="45.32" width="29.96" height="29.97" transform="translate(-10.25 77.2) rotate(-26.57)" style="fill: #1dcad3"/>
    <rect x="89.79" y="72.12" width="29.96" height="29.97" transform="translate(-27.89 56.05) rotate(-26.56)" style="fill: #009ade"/>
    <path d="M106.91,300.2l112.38,69.16L331.66,300.2V171.31L219.29,102.15,106.91,171.31Zm194.78-16.74L234.27,325V248l67.42-41.49Zm-82.4-146.12,68.8,42.34L219.29,222l-68.81-42.34Zm-82.41,69.15L204.3,248v77l-67.42-41.49Z" style="fill: #1dcad3"/>
  </g>
</svg>
