<?xml version="1.0" encoding="utf-8"?>
<!-- Generator: Adobe Illustrator 24.0.1, SVG Export Plug-In . SVG Version: 6.00 Build 0)  -->
<svg version="1.1" id="Layer_1" xmlns="http://www.w3.org/2000/svg" xmlns:xlink="http://www.w3.org/1999/xlink" x="0px" y="0px"
	 viewBox="0 0 500 500" style="enable-background:new 0 0 500 500;" xml:space="preserve">
<style type="text/css">
	.st0{fill:#FFFFFF;}
</style>
<title>acquiring</title>
<g>
	<path class="st0" d="M219.3,13.1l-27.4,13.7l13.4,26.8l14-7L384.1,129v110.6c-0.1,51.8-24.5,100.6-65.9,131.9l-98.9,74.2
		l-98.9-74.2c-41.4-31.2-65.8-80-65.9-131.8V129l16.8-8.4L57.9,93.8l-33.4,16.7v129.1c0.1,61.3,29,118.9,77.9,155.8l116.9,87.6
		l116.9-87.6c48.9-36.9,77.8-94.5,77.9-155.8V110.5L219.3,13.1z"/>
	<rect x="143.4" y="45.3" transform="matrix(0.8944 -0.4473 0.4473 0.8944 -10.2426 77.2084)" class="st0" width="30" height="30"/>
	<rect x="89.8" y="72.1" transform="matrix(0.8945 -0.4471 0.4471 0.8945 -27.8959 56.0404)" class="st0" width="30" height="30"/>
	<path class="st0" d="M106.9,300.2l112.4,69.2l112.4-69.2V171.3l-112.4-69.2l-112.4,69.2V300.2z M301.7,283.5L234.3,325v-77
		l67.4-41.5V283.5z M219.3,137.3l68.8,42.3L219.3,222l-68.8-42.3L219.3,137.3z M136.9,206.5l67.4,41.5v77l-67.4-41.5V206.5z"/>
</g>
</svg>
