<svg width="50" height="40" viewBox="0 0 50 40" fill="none" xmlns="http://www.w3.org/2000/svg">
<path d="M24.598 10.0942C24.598 10.3359 24.5877 10.5724 24.5723 10.8141C24.562 10.922 24.5517 11.0249 24.5415 11.1328C24.526 11.2665 24.5929 11.2665 24.5466 11.1071C24.562 11.1585 24.5209 11.2665 24.5158 11.3179C24.4438 11.7652 24.3358 12.2023 24.197 12.6341C24.1301 12.8398 24.053 13.0455 23.9708 13.246C23.8988 13.4259 23.9965 13.1997 23.9965 13.1894C24.0016 13.2254 23.9296 13.3437 23.9142 13.3745C23.8679 13.4773 23.8165 13.5802 23.7651 13.683C23.5594 14.084 23.3281 14.4697 23.0659 14.8398C23.035 14.8861 22.8602 15.1329 22.9476 15.0044C23.035 14.8758 22.8499 15.1226 22.8191 15.1638C22.6751 15.3386 22.526 15.5031 22.3718 15.6676C22.2175 15.827 22.053 15.9864 21.8885 16.1355C21.8113 16.2023 21.7394 16.2692 21.6571 16.336C21.616 16.372 21.5697 16.408 21.5285 16.444C21.5131 16.4594 21.4926 16.4697 21.4771 16.4851C21.3897 16.552 21.4052 16.5417 21.5234 16.4491C21.4926 16.516 21.3075 16.6085 21.2509 16.6496C21.1789 16.7011 21.1018 16.7525 21.0298 16.8039C20.8344 16.9324 20.6288 17.0558 20.4231 17.1689C20.2329 17.2718 20.0427 17.3695 19.8473 17.462C19.8062 17.4826 19.765 17.498 19.7239 17.5186C19.5079 17.6214 19.9398 17.4363 19.7187 17.5237C19.6108 17.5648 19.5079 17.606 19.4 17.6471C18.9681 17.8065 18.5208 17.9299 18.0683 18.0173C17.9655 18.0378 17.8627 18.0584 17.7598 18.0738C17.7136 18.079 17.6313 18.1098 17.585 18.0995C17.7084 18.1304 17.765 18.079 17.6467 18.0893C17.4102 18.115 17.1737 18.1355 16.9372 18.1458C16.459 18.1664 15.9809 18.1407 15.5027 18.0893C15.3073 18.0687 15.5541 18.1047 15.5644 18.0995C15.5181 18.115 15.405 18.0738 15.3536 18.0687C15.2508 18.0533 15.148 18.0327 15.0451 18.0121C14.8189 17.9659 14.5927 17.9093 14.3716 17.8476C14.1608 17.7859 13.9551 17.7191 13.7495 17.6471C13.6415 17.606 13.5387 17.5648 13.4307 17.5237C13.3073 17.4774 13.405 17.5597 13.4873 17.5494C13.441 17.5545 13.3484 17.4877 13.3022 17.4671C12.8908 17.2769 12.495 17.0558 12.1196 16.809C12.0374 16.7525 11.95 16.6959 11.8677 16.6394C11.806 16.5982 11.6517 16.5262 11.6209 16.4594C11.6569 16.4851 11.6877 16.5108 11.7237 16.5365C11.698 16.516 11.6723 16.4954 11.6466 16.4748C11.6055 16.4388 11.5592 16.4029 11.5181 16.3669C11.4255 16.2897 11.3278 16.2075 11.2404 16.1252C10.9165 15.8321 10.6132 15.5185 10.3304 15.1792C10.2944 15.138 10.2584 15.0918 10.2224 15.0506C10.2173 15.0404 10.207 15.0352 10.2018 15.0249C10.135 14.9375 10.1453 14.953 10.2378 15.0712C10.171 15.0404 10.099 14.8861 10.0579 14.8244C9.91907 14.629 9.79053 14.4337 9.67227 14.228C9.56944 14.0532 9.47176 13.8732 9.37921 13.6933C9.32779 13.5905 9.27638 13.4876 9.23011 13.3848C9.20954 13.3437 9.19412 13.3025 9.17355 13.2614C9.081 13.0609 9.24553 13.4465 9.16841 13.2563C8.99874 12.8295 8.85478 12.3925 8.74681 11.9452C8.70053 11.7395 8.65426 11.5339 8.62341 11.3282C8.61313 11.2819 8.57714 11.1637 8.59256 11.1174C8.58742 11.1328 8.62341 11.3745 8.60284 11.1791C8.58742 11.0506 8.57714 10.922 8.56685 10.7883C8.53086 10.3205 8.53086 9.85259 8.57199 9.38472C8.58228 9.26646 8.59256 9.14821 8.60799 9.02996C8.61827 8.9117 8.56685 8.96826 8.5977 9.09165C8.58742 9.04538 8.61827 8.96312 8.62341 8.91684C8.66454 8.67519 8.71082 8.43354 8.76737 8.19703C8.8702 7.77029 9.01416 7.35897 9.17355 6.95279C9.26096 6.72657 9.07586 7.1636 9.17869 6.94765C9.19926 6.90652 9.21468 6.86539 9.23525 6.82426C9.28152 6.72143 9.33294 6.6186 9.38435 6.51577C9.48718 6.31525 9.59515 6.11473 9.71341 5.9245C9.81624 5.74969 9.92935 5.58002 10.0476 5.41549C10.0887 5.35893 10.1761 5.17384 10.2481 5.14299C10.1659 5.17898 10.1299 5.28695 10.2121 5.18926C10.2635 5.12756 10.3098 5.06587 10.3612 5.00417C10.644 4.66997 10.9474 4.3512 11.2713 4.06328C11.3535 3.98615 11.4409 3.91417 11.5284 3.84219C11.5695 3.81134 11.8163 3.62625 11.6877 3.71366C11.5592 3.80106 11.806 3.62625 11.8523 3.5954C11.9602 3.51828 12.0733 3.44116 12.1865 3.36918C12.5464 3.13781 12.9217 2.92701 13.3124 2.74706C13.3484 2.73163 13.4616 2.65451 13.4975 2.66479C13.4873 2.66479 13.261 2.75734 13.441 2.6905C13.549 2.64937 13.6518 2.60823 13.7598 2.5671C13.9757 2.48998 14.1968 2.418 14.4179 2.3563C14.6184 2.29975 14.824 2.25347 15.0246 2.2072C15.1377 2.18149 15.2559 2.16093 15.369 2.1455C15.4256 2.13522 15.4873 2.13008 15.5439 2.11979C15.6415 2.10437 15.3073 2.1455 15.549 2.11979C16.0117 2.06838 16.4796 2.04781 16.9475 2.06838C17.1737 2.07866 17.3999 2.09409 17.6262 2.11979C17.6981 2.13008 17.8627 2.17121 17.6005 2.11465C17.6467 2.12493 17.693 2.13008 17.7393 2.13522C17.8781 2.15578 18.0169 2.18149 18.1506 2.21234C18.5928 2.30489 19.0246 2.42828 19.4462 2.58253C19.5439 2.61852 19.6365 2.65451 19.7342 2.69564C19.9501 2.7779 19.5748 2.61852 19.7085 2.68536C19.7599 2.71106 19.8113 2.73163 19.8627 2.75734C20.0684 2.84988 20.2689 2.95271 20.4694 3.06583C20.6545 3.16866 20.8396 3.28177 21.0195 3.40002C21.1018 3.45658 21.1892 3.51314 21.2715 3.56969C21.3177 3.60054 21.364 3.63653 21.4103 3.66738C21.436 3.68795 21.4669 3.70851 21.4926 3.72908C21.58 3.79592 21.5645 3.78049 21.4463 3.69309C21.6057 3.74965 21.7856 3.97073 21.909 4.08384C22.0787 4.23295 22.2381 4.38719 22.3923 4.55172C22.5466 4.7111 22.6957 4.88077 22.8396 5.05558C22.891 5.11728 22.9836 5.18926 23.0093 5.26639C22.9836 5.23039 22.9579 5.19955 22.9322 5.16356C22.9579 5.19955 22.9887 5.23554 23.0144 5.27153C23.0556 5.32808 23.0916 5.3795 23.1327 5.43605C23.3846 5.79596 23.6109 6.17643 23.8114 6.56718C23.8576 6.65973 23.9039 6.75228 23.945 6.84482C23.9708 6.89624 23.9913 6.94765 24.017 6.99907C24.0839 7.13275 23.9245 6.75742 24.0067 6.97336C24.089 7.18416 24.1713 7.4001 24.2433 7.61605C24.3872 8.05821 24.49 8.51066 24.5672 8.96826C24.5723 9.01453 24.5775 9.06081 24.5877 9.10708C24.5363 8.86029 24.5723 8.97854 24.5775 9.04538C24.5877 9.16363 24.6032 9.28189 24.6134 9.40014C24.5929 9.61094 24.598 9.85259 24.598 10.0942C24.598 10.6341 25.071 11.1482 25.6263 11.1225C26.1816 11.0968 26.6546 10.6701 26.6546 10.0942C26.6443 8.03765 26.0222 5.96563 24.814 4.2895C23.5903 2.58767 21.9244 1.31258 19.9604 0.587629C16.058 -0.846846 11.4358 0.412819 8.80336 3.62625C7.45629 5.27667 6.64908 7.24586 6.48455 9.37443C6.32516 11.4259 6.83931 13.5442 7.9036 15.3077C8.9319 17.0095 10.4846 18.4286 12.2996 19.2512C14.279 20.1459 16.4539 20.4081 18.5928 19.9865C22.598 19.1947 25.8885 15.8013 26.5055 11.7601C26.5878 11.2099 26.6443 10.6547 26.6495 10.0994C26.6495 9.55953 26.1765 9.04538 25.6212 9.07109C25.071 9.09165 24.6032 9.5184 24.598 10.0942Z" fill="#1C9AD6"/>
<path d="M42.8138 12.9476C42.8138 13.1173 42.8086 13.2818 42.7932 13.4515C42.7881 13.5338 42.7778 13.616 42.7726 13.6983C42.7469 13.9554 42.8035 13.5286 42.7623 13.7754C42.7109 14.1045 42.6287 14.4335 42.5258 14.7523C42.4744 14.9065 42.423 15.0556 42.3613 15.2047C42.2945 15.3744 42.4487 15.0248 42.3459 15.2407C42.3048 15.323 42.2688 15.4053 42.2276 15.4875C42.0785 15.7806 41.914 16.0582 41.7238 16.3256C41.6878 16.377 41.6209 16.5107 41.5644 16.5415C41.5592 16.5467 41.7032 16.3821 41.6209 16.4644C41.6004 16.4901 41.5798 16.5158 41.5592 16.5415C41.4461 16.6803 41.3279 16.814 41.1993 16.9426C41.0914 17.0557 40.9783 17.1637 40.86 17.2665C40.8086 17.3128 40.7572 17.3539 40.7058 17.4002C40.6698 17.431 40.6389 17.4567 40.6029 17.4876C40.459 17.611 40.7315 17.4002 40.6235 17.4721C40.3561 17.6624 40.0939 17.8475 39.806 18.0017C39.6672 18.0788 39.5283 18.1508 39.3844 18.2177C39.3535 18.2331 39.3227 18.2434 39.2918 18.2588C39.1684 18.3256 39.4769 18.1868 39.3484 18.2331C39.261 18.2639 39.1787 18.2999 39.0913 18.3308C38.7777 18.4439 38.4538 18.5364 38.1299 18.5981C38.0476 18.6136 37.9705 18.629 37.8882 18.6393C37.6466 18.6804 38.0373 18.629 37.8471 18.6444C37.6723 18.665 37.4923 18.6804 37.3124 18.6855C36.9627 18.6958 36.6234 18.6804 36.2738 18.6444C36.0836 18.6238 36.4743 18.6752 36.2327 18.6393C36.1504 18.6238 36.0733 18.6136 35.991 18.5981C35.8213 18.5621 35.6517 18.521 35.4871 18.4747C35.3329 18.4336 35.1786 18.3822 35.0295 18.3256C34.9524 18.2999 34.8804 18.2691 34.8085 18.2382C34.6696 18.1868 34.8342 18.2742 34.865 18.2639C34.8496 18.2691 34.757 18.2177 34.7416 18.2074C34.4434 18.0686 34.1606 17.9092 33.883 17.7344C33.7493 17.647 33.6259 17.5544 33.4974 17.4619C33.3843 17.3847 33.6465 17.5904 33.5488 17.4978C33.5231 17.4773 33.4974 17.4567 33.4717 17.4361C33.4048 17.3796 33.3329 17.323 33.266 17.2613C33.0244 17.0454 32.7981 16.8089 32.5925 16.5621C32.5616 16.5261 32.5359 16.4901 32.5051 16.4593C32.428 16.3719 32.5668 16.5364 32.5616 16.5364C32.5102 16.5055 32.4588 16.3976 32.4228 16.3462C32.3251 16.2073 32.2326 16.0685 32.1452 15.9246C32.0629 15.7909 31.9858 15.6521 31.9138 15.5132C31.8778 15.4413 31.8418 15.3693 31.811 15.3024C31.7904 15.2613 31.775 15.2202 31.7544 15.179C31.6927 15.0608 31.847 15.4207 31.7647 15.2047C31.6464 14.9065 31.5488 14.6032 31.4716 14.2896C31.4356 14.1302 31.3997 13.9708 31.3739 13.8114C31.3739 13.8114 31.3431 13.6829 31.3534 13.6726C31.3482 13.6777 31.3842 13.9399 31.3637 13.7343C31.3534 13.6417 31.3431 13.544 31.338 13.4515C31.3122 13.107 31.3122 12.7574 31.3431 12.4129C31.3482 12.3307 31.3585 12.2484 31.3688 12.1661C31.3894 11.9759 31.3328 12.3872 31.3739 12.125C31.3997 11.9553 31.4356 11.7805 31.4768 11.6108C31.5539 11.2869 31.667 10.9784 31.7853 10.6648C31.8264 10.5568 31.7493 10.7574 31.7493 10.7522C31.7441 10.7419 31.7955 10.6494 31.8058 10.6288C31.8367 10.5568 31.8727 10.4849 31.9087 10.4129C31.9858 10.2638 32.068 10.1147 32.1555 9.97071C32.2377 9.83703 32.3251 9.70335 32.4125 9.57481C32.4588 9.51311 32.5051 9.44627 32.5513 9.38458C32.6182 9.29203 32.4948 9.4617 32.4948 9.4617C32.4897 9.44627 32.5873 9.34859 32.6028 9.33316C32.8084 9.08637 33.0346 8.84986 33.2763 8.63392C33.3329 8.5825 33.3946 8.53109 33.4563 8.47967C33.482 8.45911 33.5077 8.43854 33.5334 8.41798C33.6722 8.29972 33.4922 8.44368 33.482 8.45397C33.5488 8.346 33.7853 8.23288 33.8933 8.1609C34.1658 7.98095 34.4537 7.82156 34.7519 7.68789C34.7725 7.6776 34.865 7.62619 34.8753 7.63133C34.8804 7.63133 34.6799 7.70845 34.7879 7.66732C34.865 7.64161 34.937 7.61076 35.009 7.57991C35.1684 7.51822 35.3329 7.4668 35.4974 7.42053C35.6517 7.37425 35.8111 7.33826 35.9704 7.30742C36.0527 7.29199 36.1298 7.27657 36.2121 7.26114C36.2584 7.256 36.3098 7.25086 36.3509 7.24057C36.2995 7.256 36.1452 7.26628 36.2892 7.25086C36.644 7.21487 37.0039 7.19944 37.3638 7.20973C37.518 7.21487 37.6723 7.23029 37.8265 7.24572C38.0939 7.27657 37.6774 7.22001 37.8676 7.25086C37.9602 7.26628 38.0527 7.28171 38.1453 7.30227C38.4846 7.36911 38.8188 7.46166 39.1427 7.58506C39.2044 7.61076 39.2713 7.63647 39.333 7.65704C39.5181 7.72902 39.2816 7.63133 39.2764 7.63133C39.2867 7.62619 39.3998 7.68789 39.3998 7.68789C39.5541 7.75987 39.7032 7.83699 39.8523 7.91925C39.9911 7.99637 40.1248 8.07864 40.2584 8.1609C40.3664 8.23288 40.6029 8.34085 40.6698 8.45397C40.6749 8.45911 40.5052 8.32029 40.5926 8.39741C40.6235 8.42826 40.6646 8.45397 40.6955 8.48482C40.7572 8.53623 40.8137 8.58765 40.8754 8.63906C40.9988 8.75217 41.1222 8.86529 41.2353 8.98868C41.3433 9.10179 41.4461 9.22005 41.549 9.3383C41.5695 9.36401 41.5901 9.38972 41.6107 9.41543C41.6826 9.49769 41.6826 9.43599 41.5747 9.36401C41.6364 9.40514 41.6929 9.5234 41.734 9.57995C41.9191 9.84731 42.0888 10.125 42.2379 10.418C42.2739 10.49 42.3099 10.562 42.3407 10.634C42.3562 10.6648 42.3665 10.6957 42.3819 10.7265C42.4436 10.8499 42.3099 10.5363 42.3562 10.6699C42.4127 10.8293 42.4796 10.9887 42.531 11.1532C42.6338 11.472 42.7109 11.8011 42.7675 12.1301C42.8086 12.3718 42.7572 11.981 42.7726 12.1713C42.7829 12.2535 42.7881 12.3358 42.7983 12.4181C42.8086 12.5877 42.8138 12.7677 42.8138 12.9476C42.8189 13.4875 43.2868 14.0016 43.8421 13.9759C44.3973 13.9502 44.8755 13.5235 44.8704 12.9476C44.8549 9.65193 42.7623 6.73157 39.6775 5.60044C36.6902 4.5053 33.1221 5.4719 31.1066 7.92953C30.0577 9.20976 29.4356 10.7214 29.2968 12.3718C29.1631 13.9554 29.5641 15.6006 30.3816 16.958C31.1734 18.2691 32.3714 19.3796 33.775 20.012C35.3278 20.7113 37.009 20.9118 38.68 20.5776C41.7443 19.9658 44.2791 17.3436 44.7521 14.2484C44.8189 13.8165 44.8652 13.3847 44.8652 12.9476C44.8704 12.4078 44.3922 11.8936 43.8369 11.9193C43.2816 11.945 42.8189 12.3718 42.8138 12.9476Z" fill="#1C9AD6"/>
<path d="M31.0451 33.1332C31.0451 34.2592 31.0451 35.3852 31.0451 36.5112C31.0451 36.6706 31.04 36.8248 31.04 36.9842C31.04 37.2207 31.1017 36.7631 31.04 36.9893C31.0297 37.0356 31.0194 37.0819 31.0091 37.123C31.004 37.1384 30.9577 37.3184 30.9474 37.3184C30.9474 37.3184 31.0606 37.1076 30.9526 37.2876C30.9217 37.3338 30.9012 37.3852 30.8703 37.4367C30.86 37.4572 30.8446 37.4726 30.8343 37.4932C30.7726 37.5858 30.7829 37.5703 30.8755 37.4469C30.8909 37.4932 30.6287 37.704 30.5978 37.7349C30.4333 37.8891 30.7881 37.6269 30.5927 37.7349C30.5516 37.7554 30.5156 37.7811 30.4796 37.8068C30.4641 37.8171 30.3099 37.9097 30.2996 37.8994C30.3408 37.884 30.3819 37.8634 30.4179 37.848C30.3767 37.8634 30.3305 37.8788 30.2893 37.8942C30.2431 37.9097 30.2019 37.92 30.1557 37.9302C30.1351 37.9354 30.1094 37.9405 30.0888 37.9457C29.9757 37.9662 29.9963 37.9611 30.1557 37.9405C30.1505 37.9559 29.9603 37.9508 29.9397 37.9508C29.914 37.9508 29.8883 37.9508 29.8626 37.9508C28.4076 37.9559 26.9525 37.9508 25.4975 37.9508C22.7159 37.9508 19.9344 37.9508 17.1477 37.9508C14.2839 37.9508 11.4201 37.9508 8.55626 37.9508C6.85957 37.9508 5.15774 37.9508 3.46105 37.9508C3.36336 37.9508 3.27081 37.9508 3.17312 37.9508C3.14741 37.9508 3.13713 37.9508 3.10114 37.9508C3.07543 37.9508 3.05487 37.9508 3.02916 37.9457C2.91605 37.9354 2.93661 37.9405 3.09086 37.9559C3.08572 37.9662 2.94175 37.9251 2.92119 37.92C2.86463 37.9045 2.81322 37.884 2.75666 37.8737C2.53558 37.8171 2.95204 37.9868 2.75152 37.8737C2.7001 37.848 2.65383 37.8223 2.60242 37.7914C2.57157 37.776 2.54586 37.7554 2.51501 37.74C2.42246 37.6783 2.43789 37.6886 2.56128 37.7811C2.52015 37.7914 2.35048 37.5909 2.31963 37.5549C2.30421 37.5395 2.28879 37.5241 2.27336 37.5035C2.20138 37.4161 2.2168 37.4367 2.30935 37.5549C2.29907 37.5601 2.20652 37.4007 2.20138 37.3852C2.18081 37.3441 2.16025 37.303 2.13968 37.267C2.02657 37.0665 2.19624 37.4829 2.13968 37.2618C2.12426 37.195 2.09855 37.1333 2.08313 37.0613C2.07798 37.0408 2.07284 37.0151 2.0677 36.9945C2.04714 36.8814 2.05228 36.9019 2.07284 37.0613C2.04199 37.051 2.06256 36.5935 2.06256 36.5472C2.06256 36.2541 2.06256 35.961 2.06256 35.668C2.06256 34.9687 2.06256 34.2644 2.06256 33.5651C2.06256 33.4212 2.06256 33.2823 2.06256 33.1384C2.06256 32.9224 2.0677 32.7065 2.08313 32.4905C2.09341 32.3466 2.10369 32.2078 2.11912 32.0638C2.12426 32.0175 2.1294 31.9713 2.13454 31.925C2.14997 31.8119 2.14482 31.8324 2.12426 31.9867C2.1294 31.9404 2.13968 31.8941 2.14482 31.8479C2.22195 31.344 2.33506 30.8453 2.4893 30.3568C2.56128 30.1255 2.63841 29.8992 2.72581 29.673C2.74638 29.6216 2.76694 29.565 2.78751 29.5136C2.87492 29.2874 2.68982 29.7244 2.79265 29.5085C2.84921 29.3851 2.90576 29.2617 2.96232 29.1383C3.17826 28.691 3.4302 28.2591 3.70784 27.8478C3.76953 27.7552 3.83637 27.6627 3.90321 27.5701C3.92892 27.529 3.98034 27.4313 4.02147 27.4056C3.99576 27.4416 3.97005 27.4724 3.94435 27.5084C3.97005 27.4724 4.0009 27.4365 4.02661 27.4005C4.18085 27.2102 4.34024 27.02 4.50991 26.84C4.84411 26.4801 5.20401 26.1408 5.58962 25.8272C5.63589 25.7912 5.69245 25.7243 5.74901 25.7038C5.52792 25.8066 5.68217 25.7552 5.75415 25.7038C5.8467 25.6369 5.9341 25.5701 6.02665 25.5084C6.23745 25.3593 6.45853 25.2205 6.68476 25.0919C6.89042 24.9737 7.10122 24.8606 7.31202 24.7526C7.41485 24.7012 7.51768 24.6549 7.62051 24.6086C7.66678 24.5881 7.75933 24.5264 7.8056 24.5264C7.66678 24.5829 7.64622 24.5932 7.74905 24.5521C7.79018 24.5367 7.83131 24.5161 7.87758 24.5007C8.3506 24.3156 8.8339 24.1665 9.32749 24.0534C9.55371 24.0019 9.78508 23.9557 10.0164 23.9197C10.0833 23.9094 10.1604 23.8837 10.2272 23.8888C9.95475 23.8785 10.1553 23.8991 10.2324 23.8888C10.3763 23.8734 10.5152 23.858 10.6591 23.8528C10.9162 23.8374 11.1733 23.8271 11.4252 23.8271C12.2941 23.8271 13.163 23.8271 14.0268 23.8271C16.5256 23.8271 19.0192 23.8271 21.518 23.8271C21.5848 23.8271 21.6516 23.8271 21.7133 23.8271C21.9498 23.8271 22.1863 23.8374 22.428 23.8528C22.572 23.8631 22.7211 23.8734 22.865 23.894C22.9062 23.8991 23.1941 23.9402 22.937 23.8991C23.0244 23.9145 23.1067 23.9248 23.1941 23.9402C23.8265 24.0482 24.4486 24.2127 25.045 24.439C25.1119 24.4647 25.1787 24.4904 25.2404 24.5161C25.2764 24.5315 25.5335 24.6446 25.3072 24.5418C25.4358 24.5984 25.5643 24.6549 25.6877 24.7166C25.9911 24.8606 26.2841 25.02 26.5669 25.1948C26.8034 25.3387 27.0348 25.493 27.261 25.6575C27.3278 25.7038 27.3998 25.7552 27.4615 25.8066C27.2816 25.6524 27.4204 25.7758 27.4667 25.8117C27.5952 25.9146 27.7237 26.0225 27.8471 26.1305C28.2687 26.5007 28.6595 26.9069 29.0142 27.3439C29.0554 27.3953 29.0914 27.4416 29.1325 27.493C29.2302 27.6164 28.9885 27.2925 29.1325 27.4982C29.2148 27.6113 29.297 27.7244 29.3793 27.8426C29.5438 28.0843 29.7032 28.3362 29.8472 28.5933C29.9808 28.8298 30.1042 29.0715 30.2174 29.3131C30.2431 29.3697 30.2688 29.4314 30.2996 29.4879C30.4127 29.7296 30.2225 29.2823 30.315 29.529C30.3716 29.673 30.4282 29.817 30.4796 29.9661C30.6647 30.4854 30.8035 31.0201 30.9063 31.5651C30.9217 31.6422 30.932 31.7245 30.9474 31.8016C30.9577 31.853 31.0143 32.1152 30.9577 31.8479C30.9834 31.9764 30.9886 32.1152 30.9989 32.2489C31.0349 32.5317 31.0451 32.8299 31.0451 33.1332C31.0451 33.6731 31.5182 34.1872 32.0734 34.1615C32.6287 34.1358 33.1017 33.7091 33.1017 33.1332C33.0914 30.5214 32.1917 28.038 30.5721 25.9917C28.9731 23.9711 26.6132 22.5263 24.0887 22.007C22.8805 21.7603 21.6825 21.7603 20.4588 21.7603C19.0603 21.7603 17.667 21.7603 16.2685 21.7603C14.942 21.7603 13.6103 21.7603 12.2838 21.7603C11.0602 21.7603 9.84677 21.7962 8.64881 22.0893C4.34024 23.1382 0.874876 26.8298 0.175633 31.2206C-0.0505923 32.6551 0.0111056 34.1153 0.0111056 35.56C0.0111056 36.0536 -0.0197433 36.5575 0.0213886 37.051C0.139643 38.4033 1.10624 39.6424 2.47388 39.92C2.98803 40.0228 3.50732 39.9971 4.03175 39.9971C4.88524 39.9971 5.74387 39.9971 6.59735 39.9971C9.32748 39.9971 12.0525 39.9971 14.7826 39.9971C17.7801 39.9971 20.7776 39.9971 23.7751 39.9971C25.6671 39.9971 27.5643 39.9971 29.4564 39.9971C29.6055 39.9971 29.7546 39.9971 29.9037 39.9971C30.7726 39.992 31.6467 39.6475 32.238 38.9997C32.7367 38.4495 33.0195 37.7863 33.0812 37.051C33.0966 36.8762 33.0914 36.7014 33.0914 36.5215C33.0914 35.8325 33.0914 35.1436 33.0914 34.4546C33.0914 34.0124 33.0914 33.5703 33.0914 33.1281C33.0914 32.5882 32.6184 32.0741 32.0631 32.0998C31.5182 32.1255 31.0451 32.5522 31.0451 33.1332Z" fill="#1C9AD6"/>
<path d="M47.6266 30.429C47.6266 31.0922 47.6266 31.7555 47.6266 32.4239C47.6266 32.8249 47.6266 33.2208 47.6266 33.6218C47.6266 33.7144 47.6214 33.8018 47.6266 33.8943C47.6266 33.8995 47.6266 33.9046 47.6266 33.9098V33.9818C47.6112 33.9663 47.6831 33.7864 47.642 33.8789C47.6317 33.9046 47.6214 33.9509 47.6163 33.9766C47.5803 34.172 47.6214 33.9046 47.6471 33.9201C47.6471 33.9201 47.606 34.0023 47.6009 34.0075C47.498 34.208 47.6163 33.9766 47.6266 33.9869C47.6317 33.992 47.4878 34.1309 47.4878 34.1257C47.4466 34.0846 47.6831 34.0126 47.534 34.0794C47.5083 34.0897 47.4723 34.1103 47.4466 34.1257C47.3541 34.1926 47.534 34.0692 47.5392 34.0897C47.5392 34.0949 47.4261 34.1206 47.4106 34.1257C47.2307 34.1823 47.6112 34.1309 47.4055 34.1206C47.3901 34.1206 47.3695 34.1206 47.3541 34.1206C47.241 34.1206 47.1227 34.1206 47.0096 34.1206C46.5109 34.1206 46.007 34.1206 45.5083 34.1206C43.8167 34.1206 42.1252 34.1206 40.4285 34.1206C38.629 34.1206 36.8243 34.1206 35.0248 34.1206C34.0582 34.1206 33.0813 34.0846 32.1096 34.1206C32.0941 34.1206 32.0787 34.1206 32.0633 34.1206C32.4078 34.4651 32.7471 34.8044 33.0916 35.1489C33.0916 34.1257 33.143 33.0871 33.0402 32.0691C32.8345 30.0691 32.1507 28.1307 30.9579 26.5009C30.2535 25.5446 29.4463 24.7322 28.5054 24.0073C28.5722 24.5471 28.6442 25.0818 28.711 25.6217C28.7727 25.5703 28.8344 25.5137 28.8961 25.4623C28.927 25.4366 29.1429 25.2721 28.9424 25.4212C29.0504 25.3389 29.1583 25.2618 29.2715 25.1847C29.544 25.0047 29.8267 24.8402 30.1147 24.6962C30.1866 24.6602 30.2638 24.6294 30.3357 24.5934C30.5825 24.4751 30.1352 24.6654 30.3923 24.5677C30.5208 24.5214 30.6494 24.47 30.7779 24.4289C31.0967 24.3209 31.4155 24.2386 31.7445 24.1769C31.8216 24.1615 31.9142 24.1358 31.9964 24.1358C31.7394 24.1409 32.0119 24.1358 32.0581 24.1307C32.2021 24.1152 32.3409 24.105 32.4849 24.0998C32.6083 24.0947 32.7317 24.0895 32.8602 24.0895C32.9733 24.0895 33.0864 24.0895 33.1996 24.0895C34.4746 24.0895 35.7549 24.0895 37.03 24.0895C38.3102 24.0895 39.5904 24.0895 40.8655 24.0895C40.9889 24.0895 41.1123 24.0895 41.2357 24.0895C41.2717 24.0895 41.3128 24.0895 41.3488 24.0895C41.4928 24.0895 41.6367 24.0947 41.7807 24.105C41.8938 24.1152 42.1098 24.0895 42.2074 24.1461C42.1612 24.1409 42.12 24.1358 42.0738 24.1307C42.12 24.1358 42.1663 24.1461 42.2126 24.1512C42.2794 24.1615 42.3514 24.1769 42.4182 24.1872C42.5314 24.2078 42.6445 24.2335 42.7576 24.2643C43.0249 24.3312 43.2923 24.4083 43.5494 24.506C43.6162 24.5317 43.6779 24.5574 43.7396 24.578C43.9556 24.6602 43.5802 24.5008 43.7139 24.5677C43.827 24.6242 43.9401 24.6705 44.0532 24.7271C44.2949 24.8505 44.5314 24.9841 44.7576 25.1332C44.8707 25.2052 44.9839 25.2824 45.0918 25.3646C45.1124 25.38 45.1278 25.3903 45.1484 25.4057C45.2358 25.4726 45.2204 25.4572 45.1021 25.3698C45.1638 25.38 45.2615 25.4983 45.3129 25.5394C45.5288 25.7194 45.7294 25.9148 45.9196 26.1204C46.0173 26.2284 46.115 26.3364 46.2075 26.4495C46.2332 26.4855 46.3258 26.5626 46.3361 26.6089C46.2538 26.4957 46.2332 26.4752 46.2795 26.5317C46.3001 26.5574 46.3206 26.5831 46.3412 26.614C46.516 26.8505 46.6703 27.0973 46.8142 27.3544C46.8913 27.4932 46.9633 27.632 47.0353 27.776C47.0559 27.8171 47.0764 27.8582 47.0919 27.8994C47.1124 27.9405 47.1279 27.9816 47.1484 28.0228C47.0919 27.8839 47.0816 27.8634 47.1227 27.9662C47.2307 28.2438 47.3284 28.5266 47.4055 28.8146C47.4415 28.9482 47.4723 29.0871 47.5032 29.2207C47.5186 29.2876 47.5289 29.3596 47.5443 29.4264C47.5546 29.4984 47.5752 29.812 47.5597 29.5035C47.5854 29.812 47.6266 30.1154 47.6266 30.429C47.6317 30.9688 48.0996 31.483 48.6549 31.4573C49.2102 31.4316 49.6883 31.0048 49.6832 30.429C49.6729 28.0228 48.624 25.6525 46.7834 24.0895C45.2049 22.7527 43.2512 22.0432 41.1843 22.0432C38.6033 22.0432 36.0222 22.0432 33.4464 22.0432C32.8088 22.0432 32.1867 22.0586 31.5543 22.1512C29.9553 22.3826 28.4848 23.1178 27.2714 24.1718C27.0298 24.3826 26.9475 24.7322 26.9886 25.0356C27.0349 25.38 27.2149 25.5806 27.4771 25.7862C27.2766 25.632 27.5182 25.8222 27.5696 25.8633C27.657 25.9353 27.7444 26.0124 27.8318 26.0844C28.0067 26.2335 28.1712 26.3929 28.3357 26.5574C28.49 26.7117 28.6391 26.8711 28.7779 27.0305C28.8447 27.1076 28.9116 27.1847 28.9784 27.2618C29.0092 27.303 29.0452 27.3389 29.0761 27.3801C29.0967 27.4058 29.2252 27.5806 29.1378 27.4572C29.0401 27.3235 29.1892 27.5292 29.1943 27.5395C29.2252 27.5806 29.256 27.6217 29.2817 27.6629C29.3434 27.7451 29.4 27.8325 29.4566 27.9148C29.5851 28.105 29.7085 28.3055 29.8216 28.5009C29.9244 28.6809 30.0221 28.8608 30.1147 29.0459C30.1609 29.1385 30.2072 29.231 30.2483 29.3236C30.2689 29.3698 30.2895 29.4161 30.31 29.4624C30.4077 29.6732 30.2483 29.303 30.3255 29.5035C30.49 29.9148 30.634 30.3364 30.7471 30.7632C30.8036 30.9791 30.855 31.2002 30.8962 31.4213C30.9167 31.5395 30.9373 31.6578 30.9579 31.7761C30.963 31.8172 30.9887 31.9046 30.9836 31.9354C30.9784 31.8994 30.9733 31.8583 30.9682 31.8223C30.9733 31.8635 30.9784 31.9046 30.9836 31.9406C31.0504 32.5113 31.0504 33.0871 31.0504 33.6578C31.0504 34.1514 31.0504 34.645 31.0504 35.1386C31.0504 35.6939 31.5234 36.1669 32.0787 36.1669C32.9014 36.1669 33.7291 36.1669 34.5518 36.1669C36.3616 36.1669 38.1714 36.1669 39.976 36.1669C41.7396 36.1669 43.498 36.1669 45.2615 36.1669C45.8116 36.1669 46.3618 36.1669 46.9119 36.1669C47.3798 36.1669 47.8322 36.1772 48.2795 35.9869C49.133 35.627 49.6626 34.8147 49.6883 33.8892C49.6935 33.6373 49.6883 33.3802 49.6883 33.1231C49.6883 32.2799 49.6883 31.4367 49.6883 30.5935C49.6883 30.5318 49.6883 30.4753 49.6883 30.4136C49.6883 29.8737 49.2153 29.3596 48.66 29.3853C48.0996 29.4264 47.6266 29.8531 47.6266 30.429Z" fill="#1C9AD6"/>
</svg>
