<svg width="66" height="40" viewBox="0 0 66 40" fill="none" xmlns="http://www.w3.org/2000/svg">
<path d="M31.0346 24.138C31.3794 24.4828 31.7932 24.6208 32.207 24.6208C32.6208 24.6208 33.0346 24.4828 33.3794 24.138C34.0001 23.5173 34.0001 22.4828 33.3794 21.8621L28.6208 17.1725L33.3105 12.4828C33.9312 11.8621 33.9312 10.8277 33.3105 10.207C32.6898 9.58628 31.6553 9.58628 31.0346 10.207L25.1725 16.0001C24.5519 16.6208 24.5519 17.6552 25.1725 18.2759L31.0346 24.138Z" fill="#1C9AD6"/>
<path d="M47.3098 24.1379C47.6546 24.4827 48.0684 24.6206 48.4822 24.6206C48.896 24.6206 49.3098 24.4827 49.6546 24.1379L55.5167 18.2758C56.1374 17.6551 56.1374 16.6206 55.5167 15.9999L49.6546 10.1379C49.0339 9.51719 47.9994 9.51719 47.3787 10.1379C46.7581 10.7586 46.7581 11.7931 47.3787 12.4137L52.0684 17.1034L47.3787 21.7931C46.6891 22.4827 46.6891 23.5172 47.3098 24.1379Z" fill="#1C9AD6"/>
<path d="M37.8622 24.5518C38.0001 24.6207 38.207 24.6207 38.3449 24.6207C39.0346 24.6207 39.6553 24.2069 39.8622 23.5173L43.7242 11.7931C44.0001 10.9655 43.5173 10 42.6898 9.72417C41.8622 9.44831 40.8967 9.93106 40.6208 10.7587L36.7587 22.4828C36.5518 23.3793 37.0346 24.2759 37.8622 24.5518Z" fill="#1C9AD6"/>
<path d="M63.931 0H16.7586C15.8621 0 15.1724 0.75862 15.1724 1.58621V10.069C14.4828 9.86207 13.7931 9.7931 13.0345 9.7931C8.27586 9.86207 4.48276 13.6552 4.48276 18.3448C4.48276 20.4138 5.24138 22.2759 6.48276 23.7931C2.68966 25.5172 0 29.3103 0 33.7931V38.4138C0 39.3103 0.758621 40 1.58621 40H24.3448C25.2414 40 25.931 39.2414 25.931 38.4138V34.3448H63.8621C64.7586 34.3448 65.4483 33.5862 65.4483 32.7586V1.72414C65.5172 0.758621 64.7586 0 63.931 0ZM12.9655 13.1034C15.8621 13.1034 18.2069 15.4483 18.2069 18.3448C18.2069 21.2414 15.8621 23.5862 12.9655 23.5862C10.069 23.5862 7.72414 21.2414 7.72414 18.3448C7.72414 15.4483 10.069 13.1034 12.9655 13.1034ZM22.7586 36.7586H3.24138V33.7931C3.24138 30 6 26.8276 9.65517 26.2069C10.6897 26.6207 11.7931 26.8966 12.9655 26.8966C14.1379 26.8966 15.2414 26.6207 16.2759 26.2069C19.931 26.8276 22.6897 30 22.6897 33.7931V36.7586H22.7586ZM62.2759 31.1034H25.5862C24.7586 27.8621 22.4828 25.1724 19.4483 23.7931C20.6897 22.3448 21.4483 20.4138 21.4483 18.3448C21.4483 15.7241 20.2069 13.3103 18.3448 11.7931V3.24138H62.2759V31.1034Z" fill="#1C9AD6"/>
</svg>
