<svg xmlns="http://www.w3.org/2000/svg" viewBox="0 0 500 500">
  <g>
    <polygon points="398.35 13.05 398.35 42.85 457.96 42.85 457.96 251.48 487.77 251.48 487.77 13.05 398.35 13.05" style="fill: #009ade"/>
    <rect x="338.75" y="13.05" width="29.8" height="29.8" style="fill: #009ade"/>
    <rect x="279.14" y="13.05" width="29.8" height="29.8" style="fill: #009ade"/>
    <polygon points="338.58 442.2 293.87 412.39 249.19 442.19 204.54 412.39 159.83 442.19 115.14 412.39 70.46 442.19 40.71 422.33 40.71 42.85 249.33 42.85 249.33 13.05 10.9 13.05 10.9 438.27 70.46 478.02 115.14 448.22 159.83 478.02 204.53 448.22 249.17 478.02 293.87 448.22 338.58 478.01 369.2 457.6 352.67 432.81 338.58 442.2" style="fill: #009ade"/>
    <rect x="70.51" y="102.46" width="238.43" height="29.8" style="fill: #009ade"/>
    <path d="M458,281.28h-29.8v32.55a44.6,44.6,0,0,0,14.9,86.67,14.9,14.9,0,0,1,0,29.8H398.35v29.81h29.81v29.8H458V457.36a44.6,44.6,0,0,0-14.9-86.67,14.9,14.9,0,1,1,0-29.8h44.71v-29.8H458Z" style="fill: #1dcad3"/>
    <rect x="338.75" y="102.46" width="89.41" height="29.8" style="fill: #009ade"/>
    <rect x="70.51" y="162.07" width="238.43" height="29.8" style="fill: #1dcad3"/>
    <rect x="338.75" y="162.07" width="89.41" height="29.8" style="fill: #009ade"/>
    <rect x="338.75" y="221.67" width="89.41" height="29.8" style="fill: #009ade"/>
    <rect x="338.75" y="281.28" width="59.61" height="29.8" style="fill: #009ade"/>
    <rect x="70.51" y="221.67" width="238.43" height="29.8" style="fill: #009ade"/>
    <rect x="70.51" y="281.28" width="238.43" height="29.8" style="fill: #009ade"/>
  </g>
</svg>
