<?xml version="1.0" encoding="utf-8"?>
<!-- Generator: Adobe Illustrator 24.0.1, SVG Export Plug-In . SVG Version: 6.00 Build 0)  -->
<svg version="1.1" id="Layer_1" xmlns="http://www.w3.org/2000/svg" xmlns:xlink="http://www.w3.org/1999/xlink" x="0px" y="0px"
	 viewBox="0 0 500 500" style="enable-background:new 0 0 500 500;" xml:space="preserve">
<style type="text/css">
	.st0{fill:#FFFFFF;}
</style>
<g>
	<polygon class="st0" points="398.4,13.1 398.4,42.8 458,42.8 458,251.5 487.8,251.5 487.8,13.1 	"/>
	<rect x="338.8" y="13.1" class="st0" width="29.8" height="29.8"/>
	<rect x="279.1" y="13.1" class="st0" width="29.8" height="29.8"/>
	<polygon class="st0" points="338.6,442.2 293.9,412.4 249.2,442.2 204.5,412.4 159.8,442.2 115.1,412.4 70.5,442.2 40.7,422.3 
		40.7,42.8 249.3,42.8 249.3,13.1 10.9,13.1 10.9,438.3 70.5,478 115.1,448.2 159.8,478 204.5,448.2 249.2,478 293.9,448.2 
		338.6,478 369.2,457.6 352.7,432.8 	"/>
	<rect x="70.5" y="102.5" class="st0" width="238.4" height="29.8"/>
	<path class="st0" d="M458,281.3h-29.8v32.5c-23.2,8.2-35.4,33.6-27.3,56.9c6.3,17.9,23.2,29.8,42.2,29.8c8.2,0,14.9,6.7,14.9,14.9
		c0,8.2-6.7,14.9-14.9,14.9h-44.8v29.8h29.8v29.8H458v-32.5c23.2-8.2,35.4-33.6,27.3-56.9c-6.3-17.9-23.2-29.8-42.2-29.8
		c-8.2,0-14.9-6.7-14.9-14.9c0-8.2,6.7-14.9,14.9-14.9c0,0,0,0,0,0h44.7v-29.8H458V281.3z"/>
	<rect x="338.8" y="102.5" class="st0" width="89.4" height="29.8"/>
	<rect x="70.5" y="162.1" class="st0" width="238.4" height="29.8"/>
	<rect x="338.8" y="162.1" class="st0" width="89.4" height="29.8"/>
	<rect x="338.8" y="221.7" class="st0" width="89.4" height="29.8"/>
	<rect x="338.8" y="281.3" class="st0" width="59.6" height="29.8"/>
	<rect x="70.5" y="221.7" class="st0" width="238.4" height="29.8"/>
	<rect x="70.5" y="281.3" class="st0" width="238.4" height="29.8"/>
</g>
</svg>
