<svg xmlns="http://www.w3.org/2000/svg" viewBox="0 0 500 500">
  <title>gaurantee</title>
  <g>
    <rect x="323.48" y="42.95" width="29.53" height="29.53" style="fill: #009ade"/>
    <rect x="264.42" y="42.95" width="29.53" height="29.53" style="fill: #009ade"/>
    <polygon points="13.37 234.93 42.91 234.93 42.91 72.49 234.88 72.49 234.88 42.95 13.37 42.95 13.37 234.93" style="fill: #009ade"/>
    <polygon points="382.55 42.95 382.55 72.49 456.39 72.49 456.39 338.3 249.65 338.3 249.65 367.83 485.93 367.83 485.93 42.95 382.55 42.95" style="fill: #009ade"/>
    <rect x="87.21" y="116.79" width="59.07" height="29.53" style="fill: #009ade"/>
    <rect x="175.81" y="116.79" width="59.07" height="29.53" style="fill: #009ade"/>
    <rect x="264.42" y="116.79" width="59.07" height="29.53" style="fill: #1dcad3"/>
    <rect x="353.02" y="116.79" width="59.07" height="29.53" style="fill: #009ade"/>
    <path d="M116.74,249.7A103.37,103.37,0,1,0,220.11,353.07,103.49,103.49,0,0,0,116.74,249.7Zm0,177.2a73.84,73.84,0,1,1,73.84-73.83A73.91,73.91,0,0,1,116.74,426.9Z" style="fill: #1dcad3"/>
    <polygon points="101.97 361.72 82.88 342.63 62 363.51 101.97 403.49 171.48 333.97 150.6 313.09 101.97 361.72" style="fill: #1dcad3"/>
    <path d="M367.79,308.77a59.07,59.07,0,1,1,59.07-59.07A59.14,59.14,0,0,1,367.79,308.77Zm0-88.61a29.54,29.54,0,1,0,29.53,29.54A29.58,29.58,0,0,0,367.79,220.16Z" style="fill: #009ade"/>
  </g>
</svg>
