<?xml version="1.0" encoding="utf-8"?>
<!-- Generator: Adobe Illustrator 24.0.1, SVG Export Plug-In . SVG Version: 6.00 Build 0)  -->
<svg version="1.1" id="Layer_1" xmlns="http://www.w3.org/2000/svg" xmlns:xlink="http://www.w3.org/1999/xlink" x="0px" y="0px"
	 viewBox="0 0 500 500" style="enable-background:new 0 0 500 500;" xml:space="preserve">
<style type="text/css">
	.st0{fill:#FFFFFF;}
</style>
<title>gaurantee</title>
<g>
	<rect x="323.5" y="43" class="st0" width="29.5" height="29.5"/>
	<rect x="264.4" y="43" class="st0" width="29.5" height="29.5"/>
	<polygon class="st0" points="13.4,234.9 42.9,234.9 42.9,72.5 234.9,72.5 234.9,43 13.4,43 	"/>
	<polygon class="st0" points="382.5,43 382.5,72.5 456.4,72.5 456.4,338.3 249.6,338.3 249.6,367.8 485.9,367.8 485.9,43 	"/>
	<rect x="87.2" y="116.8" class="st0" width="59.1" height="29.5"/>
	<rect x="175.8" y="116.8" class="st0" width="59.1" height="29.5"/>
	<rect x="264.4" y="116.8" class="st0" width="59.1" height="29.5"/>
	<rect x="353" y="116.8" class="st0" width="59.1" height="29.5"/>
	<path class="st0" d="M116.7,249.7c-57.1,0-103.4,46.3-103.4,103.4s46.3,103.4,103.4,103.4s103.4-46.3,103.4-103.4
		C220,296,173.8,249.8,116.7,249.7z M116.7,426.9c-40.8,0-73.8-33.1-73.8-73.8s33.1-73.8,73.8-73.8s73.8,33.1,73.8,73.8c0,0,0,0,0,0
		C190.5,393.8,157.5,426.9,116.7,426.9z"/>
	<polygon class="st0" points="102,361.7 82.9,342.6 62,363.5 102,403.5 171.5,334 150.6,313.1 	"/>
	<path class="st0" d="M367.8,308.8c-32.6,0-59.1-26.4-59.1-59.1c0-32.6,26.4-59.1,59.1-59.1s59.1,26.4,59.1,59.1
		C426.8,282.3,400.4,308.7,367.8,308.8z M367.8,220.2c-16.3,0-29.5,13.2-29.5,29.5s13.2,29.5,29.5,29.6c16.3,0,29.5-13.2,29.5-29.5
		c0,0,0,0,0,0C397.3,233.4,384.1,220.2,367.8,220.2L367.8,220.2z"/>
</g>
</svg>
