<svg width="40" height="40" viewBox="0 0 40 40" fill="none" xmlns="http://www.w3.org/2000/svg">
<path d="M39.38 14.2348L33.7278 0.539141C33.662 0.378972 33.5499 0.242094 33.4058 0.146043C33.2617 0.0499926 33.0923 -0.000856325 32.9191 1.0911e-05H6.83215C6.65974 8.581e-06 6.49121 0.0512616 6.34799 0.147258C6.20477 0.243254 6.09332 0.379659 6.0278 0.539141L0.37563 14.2348C0.111234 14.8525 -0.0163386 15.5202 0.00167345 16.1919C0.0196855 16.8636 0.182855 17.5234 0.479978 18.1261C0.937013 19.0317 1.62934 19.7976 2.48433 20.3435V30.4348C2.48433 30.6654 2.57594 30.8866 2.73902 31.0497C2.90209 31.2127 3.12327 31.3044 3.35389 31.3044C3.58451 31.3044 3.80569 31.2127 3.96877 31.0497C4.13184 30.8866 4.22346 30.6654 4.22346 30.4348V21.0739C5.36978 21.3469 6.57276 21.2548 7.66415 20.8104C8.75554 20.3661 9.68076 19.5917 10.3104 18.5957C10.8195 19.404 11.5252 20.0701 12.3616 20.5318C13.198 20.9934 14.1377 21.2356 15.093 21.2356C16.0483 21.2356 16.9881 20.9934 17.8244 20.5318C18.6608 20.0701 19.3665 19.404 19.8756 18.5957C20.3848 19.404 21.0905 20.0701 21.9268 20.5318C22.7632 20.9934 23.7029 21.2356 24.6582 21.2356C25.6136 21.2356 26.5533 20.9934 27.3896 20.5318C28.226 20.0701 28.9317 19.404 29.4408 18.5957C30.0705 19.5917 30.9957 20.3661 32.0871 20.8104C33.1785 21.2548 34.3815 21.3469 35.5278 21.0739V38.2609H18.1365V24.3478C18.1365 24.1172 18.0449 23.896 17.8818 23.733C17.7187 23.5699 17.4976 23.4783 17.2669 23.4783H6.83215C6.60153 23.4783 6.38035 23.5699 6.21728 23.733C6.0542 23.896 5.96259 24.1172 5.96259 24.3478V38.2609H4.22346V34.7826C4.22346 34.552 4.13184 34.3308 3.96877 34.1677C3.80569 34.0047 3.58451 33.913 3.35389 33.913C3.12327 33.913 2.90209 34.0047 2.73902 34.1677C2.57594 34.3308 2.48433 34.552 2.48433 34.7826V39.1304C2.48433 39.3611 2.57594 39.5822 2.73902 39.7453C2.90209 39.9084 3.12327 40 3.35389 40H36.3974C36.628 40 36.8492 39.9084 37.0122 39.7453C37.1753 39.5822 37.2669 39.3611 37.2669 39.1304V20.3435C38.1235 19.7982 38.8174 19.0322 39.2756 18.1261C39.5727 17.5234 39.7359 16.8636 39.7539 16.1919C39.7719 15.5202 39.6444 14.8525 39.38 14.2348ZM7.70171 38.2609V25.2174H16.3974V38.2609H7.70171ZM37.7234 17.3391C37.3237 18.1152 36.6759 18.7352 35.8832 19.1007C35.0905 19.4662 34.1983 19.5561 33.3486 19.3562C32.4989 19.1563 31.7404 18.6779 31.1938 17.9973C30.6472 17.3167 30.3439 16.4729 30.3321 15.6C30.3321 15.3694 30.2405 15.1482 30.0775 14.9851C29.9144 14.8221 29.6932 14.7304 29.4626 14.7304C29.232 14.7304 29.0108 14.8221 28.8477 14.9851C28.6846 15.1482 28.593 15.3694 28.593 15.6C28.593 16.6378 28.1807 17.6331 27.4469 18.3669C26.7131 19.1008 25.7178 19.5131 24.68 19.5131C23.6422 19.5131 22.6469 19.1008 21.913 18.3669C21.1792 17.6331 20.7669 16.6378 20.7669 15.6C20.7669 15.3694 20.6753 15.1482 20.5122 14.9851C20.3492 14.8221 20.128 14.7304 19.8974 14.7304C19.6667 14.7304 19.4456 14.8221 19.2825 14.9851C19.1194 15.1482 19.0278 15.3694 19.0278 15.6C19.0278 16.6378 18.6155 17.6331 17.8817 18.3669C17.1479 19.1008 16.1526 19.5131 15.1148 19.5131C14.077 19.5131 13.0817 19.1008 12.3478 18.3669C11.614 17.6331 11.2017 16.6378 11.2017 15.6C11.2017 15.3694 11.1101 15.1482 10.947 14.9851C10.7839 14.8221 10.5628 14.7304 10.3321 14.7304C10.1015 14.7304 9.88035 14.8221 9.71727 14.9851C9.5542 15.1482 9.46258 15.3694 9.46258 15.6C9.4508 16.4729 9.14749 17.3167 8.60091 17.9973C8.05433 18.6779 7.29586 19.1563 6.44614 19.3562C5.59642 19.5561 4.70424 19.4662 3.91152 19.1007C3.11879 18.7352 2.47104 18.1152 2.07128 17.3391C1.88844 16.96 1.78916 16.5461 1.78016 16.1252C1.77116 15.7044 1.85265 15.2866 2.01911 14.9L7.41476 1.73914H32.3365L37.7756 14.9C37.9421 15.2866 38.0236 15.7044 38.0146 16.1252C38.0056 16.5461 37.9063 16.96 37.7234 17.3391Z" fill="#1C9AD6"/>
<path d="M32.9195 33.9131C33.1501 33.9131 33.3713 33.8214 33.5343 33.6584C33.6974 33.4953 33.789 33.2741 33.789 33.0435V24.3478C33.789 24.1172 33.6974 23.896 33.5343 23.733C33.3713 23.5699 33.1501 23.4783 32.9195 23.4783H20.7455C20.5149 23.4783 20.2937 23.5699 20.1307 23.733C19.9676 23.896 19.876 24.1172 19.876 24.3478V33.0435C19.876 33.2741 19.9676 33.4953 20.1307 33.6584C20.2937 33.8214 20.5149 33.9131 20.7455 33.9131H32.9195ZM21.6151 25.2174H32.0499V32.1739H21.6151V25.2174Z" fill="#1C9AD6"/>
</svg>
