<svg width="32" height="32" viewBox="0 0 32 32" fill="none" xmlns="http://www.w3.org/2000/svg">
<path d="M32 23.2131C29.5462 24.5776 26.7224 25.3582 23.7151 25.3582C14.2863 25.3582 6.64241 17.7139 6.64241 8.28533C6.64241 5.27768 7.42233 2.45419 8.78778 0C3.54718 2.91441 0 8.50552 0 14.9275C0 24.3557 7.64384 32 17.0727 32C23.4946 32.0007 29.0853 28.4528 32 23.2131Z" fill="#FFC62C"/>
<path d="M26.7672 3.53418L28.1614 6.36032L31.2807 6.81359L29.0243 9.01354L29.5566 12.1204L26.7672 10.6537L23.9771 12.1204L24.51 9.01354L22.2529 6.81359L25.3723 6.36032L26.7672 3.53418Z" fill="#FFC62C"/>
<path d="M18.4209 12.4346L19.171 13.9548L20.8486 14.1981L19.6349 15.3817L19.9215 17.053L18.4209 16.2635L16.9202 17.053L17.2069 15.3817L15.9932 14.1981L17.671 13.9548L18.4209 12.4346Z" fill="#FFC62C"/>
<path d="M16.488 0.557617L17.4547 2.51654L19.6166 2.83063L18.0525 4.35577L18.4214 6.50877L16.488 5.49211L14.5542 6.50877L14.9235 4.35577L13.3594 2.83063L15.5213 2.51654L16.488 0.557617Z" fill="#FFC62C"/>
</svg>
