<svg width="14" height="19" viewBox="0 0 14 19" fill="none" xmlns="http://www.w3.org/2000/svg">
<path fill-rule="evenodd" clip-rule="evenodd" d="M4.8476 0.667463C5.47782 1.58414 5.93615 2.78727 6.16532 4.10499C6.2799 4.62062 5.87886 5.02166 5.53511 5.30812L4.27468 6.11021C3.35801 6.74042 7.59762 13.5582 8.57159 13.0425L9.88931 12.2405C10.2331 12.0113 10.806 11.8394 11.207 12.1832C12.2956 12.9853 13.155 13.9019 13.7279 14.8759C14.1289 15.5061 14.1289 16.079 13.4414 16.4228L11.0924 17.9124C6.62366 20.2041 -3.0587 4.67791 0.951743 1.69872L3.35801 0.266418C3.98822 -0.249211 4.44656 0.0372498 4.8476 0.667463Z" fill="#3D4D5B"/>
</svg>
