<svg width="32" height="32" viewBox="0 0 32 32" fill="none" xmlns="http://www.w3.org/2000/svg">
<path fill-rule="evenodd" clip-rule="evenodd" d="M16.474 0.285686L17.6168 2.19026C17.8072 2.57117 17.5215 3.04732 17.0454 3.04732H14.8551C14.4742 3.04732 14.1885 2.57117 14.379 2.19026L15.5217 0.285686C15.7122 -0.0952286 16.2836 -0.0952286 16.474 0.285686Z" fill="#FFC62C"/>
<path fill-rule="evenodd" clip-rule="evenodd" d="M5.23427 4.57059L7.3293 5.14197C7.80544 5.23719 7.90067 5.71334 7.61498 5.99902L5.99609 7.61791C5.71041 7.9036 5.23427 7.80837 5.13904 7.33223L4.56766 5.23719C4.37721 4.76105 4.75812 4.38014 5.23427 4.57059Z" fill="#FFC62C"/>
<path fill-rule="evenodd" clip-rule="evenodd" d="M0.285686 15.5227L2.19026 14.38C2.57117 14.1895 3.04732 14.4752 3.04732 14.8561V17.0464C3.04732 17.5225 2.57117 17.8082 2.19026 17.6177L0.285686 16.475C-0.0952286 16.2845 -0.0952286 15.7132 0.285686 15.5227Z" fill="#FFC62C"/>
<path fill-rule="evenodd" clip-rule="evenodd" d="M4.56766 26.7592L5.13904 24.569C5.23427 24.1881 5.71041 24.0928 5.99609 24.3785L7.61498 25.9022C7.90067 26.1879 7.80544 26.7592 7.3293 26.8545L5.23427 27.4258C4.75812 27.5211 4.37721 27.1401 4.56766 26.7592Z" fill="#FFC62C"/>
<path fill-rule="evenodd" clip-rule="evenodd" d="M15.5217 31.7118L14.379 29.8073C14.1885 29.4263 14.4742 28.9502 14.8551 28.9502H17.0454C17.5215 28.9502 17.8072 29.4263 17.6168 29.8073L16.474 31.7118C16.2836 32.0927 15.7122 32.0927 15.5217 31.7118Z" fill="#FFC62C"/>
<path fill-rule="evenodd" clip-rule="evenodd" d="M26.7607 27.4258L24.5704 26.8545C24.1895 26.7592 24.0943 26.1879 24.38 25.9022L25.9036 24.3785C26.1893 24.0928 26.7607 24.1881 26.8559 24.569L27.4273 26.7592C27.5225 27.1401 27.1416 27.5211 26.7607 27.4258Z" fill="#FFC62C"/>
<path fill-rule="evenodd" clip-rule="evenodd" d="M31.7148 16.475L29.8102 17.6177C29.4293 17.8082 28.9531 17.5225 28.9531 17.0464V14.8561C28.9531 14.4752 29.4293 14.1895 29.8102 14.38L31.7148 15.5227C32.0957 15.7132 32.0957 16.2845 31.7148 16.475Z" fill="#FFC62C"/>
<path fill-rule="evenodd" clip-rule="evenodd" d="M27.4273 5.23719L26.8559 7.33223C26.7607 7.80837 26.1893 7.9036 25.9036 7.61791L24.38 5.99902C24.0943 5.71334 24.1895 5.23719 24.5704 5.14197L26.7607 4.57059C27.1416 4.38014 27.5225 4.76105 27.4273 5.23719Z" fill="#FFC62C"/>
<path d="M15.9942 26.759C21.9373 26.759 26.7551 21.9412 26.7551 15.9981C26.7551 10.0551 21.9373 5.2373 15.9942 5.2373C10.0512 5.2373 5.2334 10.0551 5.2334 15.9981C5.2334 21.9412 10.0512 26.759 15.9942 26.759Z" fill="#FFC62C"/>
</svg>
